# xmcd
#
# Track frame offsets: 
#        150
#        11922
#        41118
#        53024
#        67270
#        90174
#        107183
#        127658
#        151414
#
# Disc length: 2056 seconds
#
# Revision: 0
# Processed by: cddbd v1.5.2PL0 Copyright (c) Steve Scherf et al.
# Submitted via: ExactAudioCopy v1.0b3
#
DISCID=6f080609
DTITLE=Vineyard Music - Emmanuel - Very Best of Vineyard Christmas (20
DTITLE=04)
DYEAR=2004
DGENRE=Christmas
TTITLE0=Sarah Greeno - I Heard the Bells on Christmas Day
TTITLE1=Dean Salyn - Adoramus Te
TTITLE2=Scott Underwood - O Come O Come Emmanuel
TTITLE3=Cindy Rethmeier - Away in a Manger
TTITLE4=Eddie Espinosa - O Holy Night
TTITLE5=Chandar Boyle and Heartland Vineyard Children's Choir - Emmanuel
TTITLE5=Our God is Here
TTITLE6=Jeremy Riddle - Glory to God
TTITLE7=Andy Hendley and Ruth Pergande - Unto Us
TTITLE8=Element Extras
EXTD=YEAR: 2004
EXTT0=
EXTT1=
EXTT2=
EXTT3=
EXTT4=
EXTT5=
EXTT6=
EXTT7=
EXTT8=
PLAYORDER=
